<svg width="77" height="50" viewBox="0 0 77 50" fill="none" xmlns="http://www.w3.org/2000/svg">
<g filter="url(#filter0_d_40_624)">
<rect x="15" y="9" width="32" height="32" rx="5" fill="#044744" fill-opacity="0.2" shape-rendering="crispEdges"/>
<path fill-rule="evenodd" clip-rule="evenodd" d="M25.1499 20.9833C25.1499 20.7071 25.3738 20.4833 25.6499 20.4833H36.3166C36.5927 20.4833 36.8166 20.7071 36.8166 20.9833C36.8166 21.2594 36.5927 21.4833 36.3166 21.4833H25.6499C25.3738 21.4833 25.1499 21.2594 25.1499 20.9833Z" fill="#004744"/>
<path fill-rule="evenodd" clip-rule="evenodd" d="M25.1499 24.9833C25.1499 24.7071 25.3738 24.4833 25.6499 24.4833H36.3166C36.5927 24.4833 36.8166 24.7071 36.8166 24.9833C36.8166 25.2594 36.5927 25.4833 36.3166 25.4833H25.6499C25.3738 25.4833 25.1499 25.2594 25.1499 24.9833Z" fill="#004744"/>
<path fill-rule="evenodd" clip-rule="evenodd" d="M25.1499 28.9833C25.1499 28.7071 25.3738 28.4833 25.6499 28.4833H36.3166C36.5927 28.4833 36.8166 28.7071 36.8166 28.9833C36.8166 29.2594 36.5927 29.4833 36.3166 29.4833H25.6499C25.3738 29.4833 25.1499 29.2594 25.1499 28.9833Z" fill="#004744"/>
</g>
<defs>
<filter id="filter0_d_40_624" x="-15" y="-21" width="92" height="92" filterUnits="userSpaceOnUse" color-interpolation-filters="sRGB">
<feFlood flood-opacity="0" result="BackgroundImageFix"/>
<feColorMatrix in="SourceAlpha" type="matrix" values="0 0 0 0 0 0 0 0 0 0 0 0 0 0 0 0 0 0 127 0" result="hardAlpha"/>
<feOffset/>
<feGaussianBlur stdDeviation="15"/>
<feComposite in2="hardAlpha" operator="out"/>
<feColorMatrix type="matrix" values="0 0 0 0 0.516667 0 0 0 0 0.516667 0 0 0 0 0.516667 0 0 0 0.25 0"/>
<feBlend mode="normal" in2="BackgroundImageFix" result="effect1_dropShadow_40_624"/>
<feBlend mode="normal" in="SourceGraphic" in2="effect1_dropShadow_40_624" result="shape"/>
</filter>
</defs>
</svg>
